<svg xmlns="http://www.w3.org/2000/svg" version="1.1" xmlns:xlink="http://www.w3.org/1999/xlink" xmlns:svgjs="http://svgjs.dev/svgjs" width="128" height="128" viewBox="0 0 128 128"><g transform="matrix(0.8046875,0,0,0.8046875,12.550048590864904,11.93022933467742)"><svg viewBox="0 0 153 155" data-background-color="#ffffff" preserveAspectRatio="xMidYMid meet" height="129" width="128" xmlns="http://www.w3.org/2000/svg" xmlns:xlink="http://www.w3.org/1999/xlink"><g id="tight-bounds" transform="matrix(1,0,0,1,-0.07434402332359014,0.25)"><svg viewBox="0 0 153.1486880466472 154.5" height="154.5" width="153.1486880466472"><g><svg viewBox="0 0 153.1486880466472 154.5" height="154.5" width="153.1486880466472"><g><svg viewBox="0 0 153.1486880466472 154.5" height="154.5" width="153.1486880466472"><g><svg viewBox="0 0 153.1486880466472 154.5" height="154.5" width="153.1486880466472"><g><svg viewBox="0 0 153.1486880466472 154.5" height="154.5" width="153.1486880466472"><g transform="matrix(1,0,0,1,0,0)"><svg width="153.1486880466472" viewBox="1.75 -34.3 34 34.3" height="154.5" data-palette-color="#332885"><path d="M28.55-17.85Q35.75-15.95 35.75-9.55L35.75-9.55Q35.75-5 32.3-2.5 28.85 0 22.35 0L22.35 0 1.75 0 1.75-5.25 7.75-5.25 7.75-29.05 1.75-29.05 1.75-34.3 21.45-34.3Q27.05-34.3 30.08-31.8 33.1-29.3 33.1-25.2L33.1-25.2Q33.1-22.7 31.88-20.85 30.65-19 28.55-17.85L28.55-17.85ZM21.05-29.05L14.25-29.05 14.25-19.55 19.85-19.55Q26.5-19.55 26.5-24.4L26.5-24.4Q26.5-26.85 24.93-27.95 23.35-29.05 21.05-29.05L21.05-29.05ZM21.85-5.25Q29.1-5.25 29.1-10.05L29.1-10.05Q29.1-12.5 27.33-13.63 25.55-14.75 22.1-14.8L22.1-14.8 14.25-14.8 14.25-5.25 21.85-5.25Z" opacity="1" transform="matrix(1,0,0,1,0,0)" fill="#332885" class="undefined-text-0" data-fill-palette-color="primary" id="text-0"></path></svg></g></svg></g></svg></g></svg></g><g></g></svg></g><defs></defs></svg><rect width="153.1486880466472" height="154.5" fill="none" stroke="none" visibility="hidden"></rect></g></svg></g></svg>